<svg xmlns:xlink="http://www.w3.org/1999/xlink" width="513.737" xmlns="http://www.w3.org/2000/svg" height="513.737" id="screenshot-fcff42db-614f-8071-8003-41ac028b6481" viewBox="-0.868 -0.868 513.737 513.737" style="-webkit-print-color-adjust: exact;" fill="none" version="1.1"><g id="shape-fcff42db-614f-8071-8003-41ac028b6481" rx="0" ry="0"><g id="shape-fcff42db-614f-8071-8003-41ac028b6482" rx="0" ry="0"><g id="shape-fcff42db-614f-8071-8003-41ac028b6483"><defs><clipPath class="frame-clip-def frame-clip" id="frame-clip-fcff42db-614f-8071-8003-41ac028b6483-rumext-id-3"><rect rx="0" ry="0" x="-5.4569682106375694e-12" y="-7.275957614183426e-12" width="512" height="512" transform="matrix(0.999994, 0.003398, -0.003398, 0.999994, 0.871448, -0.868492)" style="fill: rgb(255, 255, 255); fill-opacity: 1;"/></clipPath></defs><g clip-path="url(#frame-clip-fcff42db-614f-8071-8003-41ac028b6483-rumext-id-3)" fill="none"><clipPath class="frame-clip-def frame-clip" id="frame-clip-fcff42db-614f-8071-8003-41ac028b6483-rumext-id-3"><rect rx="0" ry="0" x="-5.4569682106375694e-12" y="-7.275957614183426e-12" width="512" height="512" transform="matrix(0.999994, 0.003398, -0.003398, 0.999994, 0.871448, -0.868492)" style="fill: rgb(255, 255, 255); fill-opacity: 1;"/></clipPath><g class="fills" id="fills-fcff42db-614f-8071-8003-41ac028b6483"><rect width="512" height="512" class="frame-background" x="-5.4569682106375694e-12" transform="matrix(0.999994, 0.003398, -0.003398, 0.999994, 0.871448, -0.868492)" style="fill: rgb(255, 255, 255); fill-opacity: 1;" ry="0" rx="0" y="-7.275957614183426e-12"/></g><g class="frame-children"><g id="shape-fcff42db-614f-8071-8003-41ac028b6484" rx="0" ry="0"><g id="shape-fcff42db-614f-8071-8003-41ac028b6485"><g class="fills" id="fills-fcff42db-614f-8071-8003-41ac028b6485"><path rx="0" ry="0" d="M234.968,506.604C570.918,507.745,96.803,14.367,95.988,253.960C95.651,353.167,177.311,327.663,249.273,263.634C351.107,173.027,433.519,5.276,236.674,4.607C155.311,4.330,121.352,32.922,116.619,73.012C101.809,198.454,373.150,436.471,373.767,254.904C374.581,15.311,-100.982,505.462,234.968,506.604ZM250.493,506.657C586.443,507.798,112.328,14.420,111.514,254.013C111.177,353.220,192.837,327.715,264.799,263.687C366.632,173.080,449.045,5.328,252.199,4.659C170.836,4.383,136.877,32.975,132.144,73.065C117.335,198.507,388.676,436.524,389.293,254.957C390.107,15.364,-85.456,505.515,250.493,506.657ZM264.340,506.704C600.290,507.845,126.175,14.467,125.361,254.060C125.024,353.267,206.684,327.763,278.646,263.734C380.479,173.127,462.892,5.375,266.046,4.707C184.683,4.430,150.724,33.022,145.991,73.112C131.182,198.554,402.523,436.571,403.140,255.004C403.954,15.411,-71.610,505.562,264.340,506.704ZM278.187,506.751C614.137,507.892,140.022,14.514,139.208,254.107C138.871,353.314,220.531,327.810,292.493,263.781C394.326,173.174,476.739,5.423,279.893,4.754C198.530,4.477,164.571,33.069,159.838,73.159C145.029,198.601,416.370,436.618,416.987,255.051C417.801,15.458,-57.763,505.609,278.187,506.751Z"/></g><g id="strokes-fcff42db-614f-8071-8003-41ac028b6485" class="strokes"><g class="inner-stroke-shape"><defs><linearGradient id="stroke-color-gradient_rumext-id-5_0" x1="0.5" y1="0" x2="0.5" y2="1" gradientTransform="matrix(0.999994, 0.003398, -0.003398, 0.999994, 0.001702, -0.001696)"><stop offset="0" stop-color="#00c2dd" stop-opacity="1"/><stop offset="1" stop-color="#FC007A" stop-opacity="0.53125"/></linearGradient><clipPath id="inner-stroke-rumext-id-5-fcff42db-614f-8071-8003-41ac028b6485-0"><use href="#stroke-shape-rumext-id-5-fcff42db-614f-8071-8003-41ac028b6485-0"/></clipPath><path rx="0" ry="0" d="M234.968,506.604C570.918,507.745,96.803,14.367,95.988,253.960C95.651,353.167,177.311,327.663,249.273,263.634C351.107,173.027,433.519,5.276,236.674,4.607C155.311,4.330,121.352,32.922,116.619,73.012C101.809,198.454,373.150,436.471,373.767,254.904C374.581,15.311,-100.982,505.462,234.968,506.604ZM250.493,506.657C586.443,507.798,112.328,14.420,111.514,254.013C111.177,353.220,192.837,327.715,264.799,263.687C366.632,173.080,449.045,5.328,252.199,4.659C170.836,4.383,136.877,32.975,132.144,73.065C117.335,198.507,388.676,436.524,389.293,254.957C390.107,15.364,-85.456,505.515,250.493,506.657ZM264.340,506.704C600.290,507.845,126.175,14.467,125.361,254.060C125.024,353.267,206.684,327.763,278.646,263.734C380.479,173.127,462.892,5.375,266.046,4.707C184.683,4.430,150.724,33.022,145.991,73.112C131.182,198.554,402.523,436.571,403.140,255.004C403.954,15.411,-71.610,505.562,264.340,506.704ZM278.187,506.751C614.137,507.892,140.022,14.514,139.208,254.107C138.871,353.314,220.531,327.810,292.493,263.781C394.326,173.174,476.739,5.423,279.893,4.754C198.530,4.477,164.571,33.069,159.838,73.159C145.029,198.601,416.370,436.618,416.987,255.051C417.801,15.458,-57.763,505.609,278.187,506.751Z" id="stroke-shape-rumext-id-5-fcff42db-614f-8071-8003-41ac028b6485-0" style="fill: none; stroke-width: 6; stroke: url(&quot;#stroke-color-gradient_rumext-id-5_0&quot;);"/></defs><use href="#stroke-shape-rumext-id-5-fcff42db-614f-8071-8003-41ac028b6485-0" clip-path="url('#inner-stroke-rumext-id-5-fcff42db-614f-8071-8003-41ac028b6485-0')"/></g></g></g></g></g></g></g></g></g></svg>