
<svg width="0" height="0" class="hidden">
  <symbol xmlns="http://www.w3.org/2000/svg" viewBox="0 96 960 960" id="exchange-material">
    <path d="M480 1016q-112 0-216-66T100 799v137H40V696h240v60H143q51 77 145.5 138.5T480 956q78 0 147.5-30t121-81.5Q800 793 830 723.5T860 576h60q0 91-34.5 171T791 887q-60 60-140 94.5T480 1016Zm-29-153v-54q-45-12-75.5-38.5T324 698l51-17q12 38 42.5 60t69.5 22q40 0 66.5-19.5T580 692q0-33-25-55.5T463 586q-60-25-90-54t-30-78q0-44 30-75t80-38v-51h55v51q38 4 66 24t45 55l-48 23q-15-28-37-42t-52-14q-39 0-61.5 18T398 454q0 32 26 51t84 43q69 29 98 61t29 83q0 25-9 46t-25.5 36Q584 789 560 798.5T506 811v52h-55ZM40 576q0-91 34.5-171T169 265q60-60 140-94.5T480 136q112 0 216 66t164 151V216h60v240H680v-60h137q-51-77-145-138.5T480 196q-78 0-147.5 30t-121 81.5Q160 359 130 428.5T100 576H40Z"></path>
  </symbol>
  <symbol xmlns="http://www.w3.org/2000/svg" viewBox="0 96 960 960" id="lupa-material">
    <path d="M796 935 533 672q-30 26-69.959 40.5T378 727q-108.162 0-183.081-75Q120 577 120 471t75-181q75-75 181.5-75t181 75Q632 365 632 471.15 632 514 618 554q-14 40-42 75l264 262-44 44ZM377 667q81.25 0 138.125-57.5T572 471q0-81-56.875-138.5T377 275q-82.083 0-139.542 57.5Q180 390 180 471t57.458 138.5Q294.917 667 377 667Z"></path>
  </symbol>
  <symbol xmlns="http://www.w3.org/2000/svg" viewBox="0 96 960 960" id="regua-material">
    <path d="M140 816q-24 0-42-18t-18-42V396q0-23 18-41.5t42-18.5h680q24 0 42 18.5t18 41.5v360q0 24-18 42t-42 18H140Zm0-60h680V396H690v180h-60V396H510v180h-60V396H330v180h-60V396H140v360Zm130-180h60-60Zm180 0h60-60Zm180 0h60-60Zm-150 0Z"></path>
  </symbol>
</svg>
